<?xml version="1.0" encoding="UTF-8" standalone="no"?>
<svg
   xmlns:dc="http://purl.org/dc/elements/1.1/"
   xmlns:cc="http://creativecommons.org/ns#"
   xmlns:rdf="http://www.w3.org/1999/02/22-rdf-syntax-ns#"
   xmlns:svg="http://www.w3.org/2000/svg"
   xmlns="http://www.w3.org/2000/svg"
   xmlns:sodipodi="http://sodipodi.sourceforge.net/DTD/sodipodi-0.dtd"
   xmlns:inkscape="http://www.inkscape.org/namespaces/inkscape"
   width="226px"
   height="82px"
   viewBox="0 0 226 82"
   version="1.1"
   id="svg2"
   inkscape:version="0.91 r13725"
   sodipodi:docname="logo-bg-no-frame.svg">
  <metadata
     id="metadata25">
    <rdf:RDF>
      <cc:Work
         rdf:about="">
        <dc:format>image/svg+xml</dc:format>
        <dc:type
           rdf:resource="http://purl.org/dc/dcmitype/StillImage" />
        <dc:title>logo-bg</dc:title>
      </cc:Work>
    </rdf:RDF>
  </metadata>
  <sodipodi:namedview
     pagecolor="#ffffff"
     bordercolor="#666666"
     borderopacity="1"
     objecttolerance="10"
     gridtolerance="10"
     guidetolerance="10"
     inkscape:pageopacity="0"
     inkscape:pageshadow="2"
     inkscape:window-width="1782"
     inkscape:window-height="984"
     id="namedview23"
     showgrid="false"
     inkscape:zoom="5.0973451"
     inkscape:cx="102.54711"
     inkscape:cy="31.393405"
     inkscape:window-x="2429"
     inkscape:window-y="251"
     inkscape:window-maximized="0"
     inkscape:current-layer="svg2" />
  <!-- Generator: Sketch 3.8.3 (29802) - http://www.bohemiancoding.com/sketch -->
  <title
     id="title4">logo-bg</title>
  <desc
     id="desc6">Created with Sketch.</desc>
  <defs
     id="defs8" />
  <g
     id="Page-1"
     stroke="none"
     stroke-width="1"
     fill="none"
     fill-rule="evenodd">
    <g
       id="Artboard-1"
       transform="translate(-2471.000000, -691.000000)">
      <g
         id="logo-bg"
         transform="translate(2472.000000, 692.000000)">
        <polygon
           id="Rectangle-5"
           points="25,40 24,19 51,19 "
           transform="matrix(0.97266142,0,0,1,0.41336493,0)"
           style="opacity:0.27378732;fill:#e8e8e8" />
        <path
           d="M58.4855,16.329 C58.2634989,16.329 58.0661675,16.2426675 57.8935,16.07 C57.7208325,15.8973325 57.6345,15.6630015 57.6345,15.367 C57.6345,15.0956653 57.7208325,14.8736675 57.8935,14.701 C58.0661675,14.5283325 58.2634989,14.442 58.4855,14.442 C58.7075011,14.442 58.9048325,14.5283325 59.0775,14.701 C59.2501675,14.8736675 59.3365,15.0956653 59.3365,15.367 C59.3365,15.6630015 59.2440009,15.8973325 59.059,16.07 C58.8739991,16.2426675 58.6828343,16.329 58.4855,16.329 L58.4855,16.329 Z M58.0785,39.75 L58.0785,22.73 L58.8925,22.73 L58.8925,39.75 L58.0785,39.75 Z M67.9025,27.207 C68.1491679,26.4176627 68.506831,25.7146697 68.9755,25.098 C69.444169,24.4813303 69.974497,23.9571688 70.5665,23.5255 C71.158503,23.0938312 71.7998299,22.7670011 72.4905,22.545 C73.1811701,22.3229989 73.8964963,22.212 74.6365,22.212 C75.8205059,22.212 76.8071627,22.4216646 77.5965,22.841 C78.3858373,23.2603354 79.014831,23.8153299 79.4835,24.506 C79.952169,25.1966701 80.2851657,25.9736624 80.4825,26.837 C80.6798343,27.7003377 80.7785,28.5759956 80.7785,29.464 L80.7785,39.75 L79.9645,39.75 L79.9645,29.538 C79.9645,28.8473299 79.8905007,28.1073373 79.7425,27.318 C79.5944993,26.5286627 79.317002,25.8133365 78.91,25.172 C78.502998,24.5306635 77.9541701,23.9941688 77.2635,23.5625 C76.5728299,23.1308312 75.697172,22.915 74.6365,22.915 C73.699162,22.915 72.8173375,23.1061648 71.991,23.4885 C71.1646625,23.8708352 70.4493364,24.4196631 69.845,25.135 C69.2406636,25.8503369 68.7596685,26.7198282 68.402,27.7435 C68.0443315,28.7671718 67.8655,29.9326601 67.8655,31.24 L67.8655,39.75 L67.0515,39.75 L67.0515,27.022 C67.0515,26.7506653 67.0453334,26.4176686 67.033,26.023 C67.0206666,25.6283314 67.0083334,25.227502 66.996,24.8205 C66.9836666,24.413498 66.9651668,24.0250018 66.9405,23.655 C66.9158332,23.2849981 66.8911668,22.9766679 66.8665,22.73 L67.6805,22.73 C67.7051668,22.9766679 67.7236666,23.2849981 67.736,23.655 C67.7483334,24.0250018 67.7606666,24.4258312 67.773,24.8575 C67.7853334,25.2891688 67.7976666,25.708498 67.81,26.1155 C67.8223334,26.522502 67.8285,26.8863317 67.8285,27.207 L67.9025,27.207 Z M87.9385,31.055 C87.9385,32.0910052 88.0926651,33.1146616 88.401,34.126 C88.7093349,35.1373384 89.1779969,36.0438293 89.807,36.8455 C90.4360031,37.6471707 91.2314952,38.2946642 92.1935,38.788 C93.1555048,39.2813358 94.2901601,39.528 95.5975,39.528 C96.9295067,39.528 98.1134948,39.262836 99.1495,38.7325 C100.185505,38.202164 101.08583,37.4313384 101.8505,36.42 L102.4425,36.938 C101.603829,38.0233388 100.623339,38.8496638 99.501,39.417 C98.3786611,39.9843362 97.0775074,40.268 95.5975,40.268 C94.3394937,40.268 93.1925052,40.0398356 92.1565,39.5835 C91.1204948,39.1271644 90.2263371,38.4920041 89.474,37.678 C88.7216629,36.8639959 88.142002,35.8896723 87.735,34.755 C87.327998,33.6203277 87.1245,32.3870067 87.1245,31.055 C87.1245,29.7723269 87.3341646,28.5883388 87.7535,27.503 C88.1728354,26.4176612 88.7463297,25.4803373 89.474,24.691 C90.2016703,23.9016627 91.0588284,23.2911688 92.0455,22.8595 C93.0321716,22.4278312 94.0928277,22.212 95.2275,22.212 C96.5595067,22.212 97.7188284,22.446331 98.7055,22.915 C99.6921716,23.383669 100.51233,24.0003295 101.166,24.765 C101.81967,25.5296705 102.306832,26.3991618 102.6275,27.3735 C102.948168,28.3478382 103.1085,29.3406616 103.1085,30.352 L103.1085,31.055 L87.9385,31.055 Z M102.3315,30.352 C102.306833,29.2419944 102.115668,28.2306712 101.758,27.318 C101.400332,26.4053288 100.91317,25.6221699 100.2965,24.9685 C99.6798303,24.3148301 98.9398376,23.8091685 98.0765,23.4515 C97.2131623,23.0938315 96.251172,22.915 95.1905,22.915 C93.9078269,22.915 92.8101712,23.180164 91.8975,23.7105 C90.9848288,24.240836 90.2386696,24.8944961 89.659,25.6715 C89.0793304,26.4485039 88.6538347,27.2624957 88.3825,28.1135 C88.1111653,28.9645043 87.9755,29.7106635 87.9755,30.352 L102.3315,30.352 Z M119.2595,35.31 C119.2595,36.0746705 119.111501,36.7591636 118.8155,37.3635 C118.519499,37.9678364 118.118669,38.4796646 117.613,38.899 C117.107331,39.3183354 116.521503,39.6389989 115.8555,39.861 C115.189497,40.0830011 114.47417,40.194 113.7095,40.194 C112.451494,40.194 111.310672,39.9535024 110.287,39.4725 C109.263328,38.9914976 108.418503,38.282338 107.7525,37.345 L108.4185,36.901 C109.651839,38.6276753 111.427822,39.491 113.7465,39.491 C114.289169,39.491 114.837997,39.4046675 115.393,39.232 C115.948003,39.0593325 116.453664,38.8003351 116.91,38.455 C117.366336,38.1096649 117.736332,37.6780026 118.02,37.16 C118.303668,36.6419974 118.4455,36.0500033 118.4455,35.384 C118.4455,34.5946627 118.266668,33.9533358 117.909,33.46 C117.551332,32.9666642 117.101169,32.5720015 116.5585,32.276 C116.015831,31.9799985 115.41767,31.7395009 114.764,31.5545 C114.11033,31.3694991 113.499836,31.2030007 112.9325,31.055 C112.31583,30.8823325 111.736169,30.6911677 111.1935,30.4815 C110.650831,30.2718323 110.176002,30.0005017 109.769,29.6675 C109.361998,29.3344983 109.041335,28.9213358 108.807,28.428 C108.572665,27.9346642 108.4555,27.3180037 108.4555,26.578 C108.4555,25.8379963 108.603499,25.1966694 108.8995,24.654 C109.195501,24.1113306 109.590164,23.6611685 110.0835,23.3035 C110.576836,22.9458315 111.137997,22.6745009 111.767,22.4895 C112.396003,22.3044991 113.031163,22.212 113.6725,22.212 C115.991178,22.212 117.730161,23.0383251 118.8895,24.691 L118.1865,25.098 C117.619164,24.3579963 116.977837,23.8091685 116.2625,23.4515 C115.547163,23.0938315 114.683838,22.915 113.6725,22.915 C113.203831,22.915 112.710503,22.976666 112.1925,23.1 C111.674497,23.2233339 111.199669,23.4268319 110.768,23.7105 C110.336331,23.9941681 109.978668,24.370331 109.695,24.839 C109.411332,25.307669 109.2695,25.8749967 109.2695,26.541 C109.2695,27.2810037 109.386665,27.8729978 109.621,28.317 C109.855335,28.7610022 110.182165,29.1186653 110.6015,29.39 C111.020835,29.6613347 111.526497,29.8894991 112.1185,30.0745 C112.710503,30.2595009 113.364163,30.4383325 114.0795,30.611 C114.745503,30.7836675 115.392997,30.9871655 116.022,31.2215 C116.651003,31.4558345 117.205998,31.7456649 117.687,32.091 C118.168002,32.4363351 118.550332,32.8679974 118.834,33.386 C119.117668,33.9040026 119.2595,34.5453295 119.2595,35.31 L119.2595,35.31 Z M137.6675,25.024 C137.026163,24.3579967 136.273838,23.8400019 135.4105,23.47 C134.547162,23.0999982 133.646838,22.915 132.7095,22.915 C131.500827,22.915 130.415505,23.1431644 129.4535,23.5995 C128.491495,24.0558356 127.671337,24.6663295 126.993,25.431 C126.314663,26.1956705 125.790502,27.0836616 125.4205,28.095 C125.050498,29.1063384 124.8655,30.1669944 124.8655,31.277 C124.8655,32.3870056 125.050498,33.4476616 125.4205,34.459 C125.790502,35.4703384 126.314663,36.3521629 126.993,37.1045 C127.671337,37.8568371 128.491495,38.4549978 129.4535,38.899 C130.415505,39.3430022 131.500827,39.565 132.7095,39.565 C133.646838,39.565 134.565662,39.4046683 135.466,39.084 C136.366338,38.7633317 137.149497,38.2823365 137.8155,37.641 L138.3705,38.159 C137.630496,38.8990037 136.761005,39.4354983 135.762,39.7685 C134.762995,40.1015017 133.745505,40.268 132.7095,40.268 C131.451494,40.268 130.298339,40.0460022 129.25,39.602 C128.201661,39.1579978 127.289004,38.5413373 126.512,37.752 C125.734996,36.9626627 125.130669,36.0130056 124.699,34.903 C124.267331,33.7929945 124.0515,32.5843399 124.0515,31.277 C124.0515,29.9696601 124.267331,28.7610056 124.699,27.651 C125.130669,26.5409944 125.734996,25.5851707 126.512,24.7835 C127.289004,23.9818293 128.201661,23.3528356 129.25,22.8965 C130.298339,22.4401644 131.451494,22.212 132.7095,22.212 C133.794839,22.212 134.824662,22.4093314 135.799,22.804 C136.773338,23.1986686 137.60583,23.7536631 138.2965,24.469 L137.6675,25.024 Z M155.4835,35.902 C155.4835,36.5433365 155.514333,37.2278297 155.576,37.9555 C155.637667,38.6831703 155.7055,39.281331 155.7795,39.75 L155.0025,39.75 C154.953166,39.5033321 154.916167,39.2011685 154.8915,38.8435 C154.866833,38.4858315 154.836,38.1158352 154.799,37.7335 C154.762,37.3511648 154.737333,36.9750019 154.725,36.605 C154.712667,36.2349982 154.7065,35.9266679 154.7065,35.68 L154.5955,35.68 C154.102164,37.2340078 153.251173,38.3871629 152.0425,39.1395 C150.833827,39.8918371 149.53884,40.268 148.1575,40.268 C147.46683,40.268 146.782337,40.1693343 146.104,39.972 C145.425663,39.7746657 144.815169,39.4786686 144.2725,39.084 C143.729831,38.6893314 143.292002,38.1836698 142.959,37.567 C142.625998,36.9503302 142.4595,36.2226709 142.4595,35.384 C142.4595,34.1753273 142.773997,33.2010037 143.403,32.461 C144.032003,31.7209963 144.815162,31.147502 145.7525,30.7405 C146.689838,30.333498 147.694995,30.068334 148.768,29.945 C149.841005,29.821666 150.821496,29.76 151.7095,29.76 L154.6695,29.76 L154.6695,28.391 C154.6695,26.4916572 154.163838,25.104171 153.1525,24.2285 C152.141162,23.352829 150.821508,22.915 149.1935,22.915 C148.182162,22.915 147.238671,23.0999982 146.363,23.47 C145.487329,23.8400019 144.70417,24.3333303 144.0135,24.95 L143.5695,24.321 C144.358837,23.6303299 145.252995,23.1061685 146.252,22.7485 C147.251005,22.3908315 148.231495,22.212 149.1935,22.212 C151.142176,22.212 152.677661,22.711495 153.8,23.7105 C154.922339,24.709505 155.4835,26.2819893 155.4835,28.428 L155.4835,35.902 Z M154.6695,30.463 L152.0425,30.463 C151.105162,30.463 150.118505,30.5184994 149.0825,30.6295 C148.046495,30.7405006 147.096838,30.9686649 146.2335,31.314 C145.370162,31.6593351 144.661003,32.1526635 144.106,32.794 C143.550997,33.4353365 143.2735,34.2986612 143.2735,35.384 C143.2735,36.1733373 143.427665,36.833164 143.736,37.3635 C144.044335,37.893836 144.438998,38.3193317 144.92,38.64 C145.401002,38.9606683 145.93133,39.1949993 146.511,39.343 C147.09067,39.4910007 147.639497,39.565 148.1575,39.565 C149.415506,39.565 150.463829,39.330669 151.3025,38.862 C152.141171,38.393331 152.813331,37.7951703 153.319,37.0675 C153.824669,36.3398297 154.176166,35.538171 154.3735,34.6625 C154.570834,33.786829 154.6695,32.9296709 154.6695,32.091 L154.6695,30.463 Z M164.1605,27.355 C164.900504,25.6529915 165.954993,24.3703377 167.324,23.507 C168.693007,22.6436623 170.191492,22.212 171.8195,22.212 C173.077506,22.212 174.230661,22.4401644 175.279,22.8965 C176.327339,23.3528356 177.227663,23.9818293 177.98,24.7835 C178.732337,25.5851707 179.311998,26.5409944 179.719,27.651 C180.126002,28.7610056 180.3295,29.9696601 180.3295,31.277 C180.3295,32.5596731 180.119835,33.7498278 179.7005,34.8475 C179.281165,35.9451722 178.695337,36.8948293 177.943,37.6965 C177.190663,38.4981707 176.290339,39.1271644 175.242,39.5835 C174.193661,40.0398356 173.05284,40.268 171.8195,40.268 C171.005496,40.268 170.210004,40.1570011 169.433,39.935 C168.655996,39.7129989 167.934503,39.3861688 167.2685,38.9545 C166.602497,38.5228312 165.998169,37.9925031 165.4555,37.3635 C164.912831,36.7344969 164.481168,36.0006709 164.1605,35.162 L164.0495,35.162 L164.0495,48.63 L163.2355,48.63 L163.2355,22.73 L164.0495,22.73 L164.0495,27.355 L164.1605,27.355 Z M179.5155,31.277 C179.5155,30.1669944 179.336668,29.1063384 178.979,28.095 C178.621332,27.0836616 178.109503,26.1956705 177.4435,25.431 C176.777497,24.6663295 175.969671,24.0558356 175.02,23.5995 C174.070329,23.1431644 173.003506,22.915 171.8195,22.915 C170.684828,22.915 169.642671,23.1369978 168.693,23.581 C167.743329,24.0250022 166.92317,24.6231629 166.2325,25.3755 C165.54183,26.1278371 164.999169,27.0096616 164.6045,28.021 C164.209831,29.0323384 164.0125,30.1053277 164.0125,31.24 C164.0125,32.3746723 164.209831,33.4476616 164.6045,34.459 C164.999169,35.4703384 165.54183,36.3521629 166.2325,37.1045 C166.92317,37.8568371 167.743329,38.4549978 168.693,38.899 C169.642671,39.3430022 170.684828,39.565 171.8195,39.565 C173.003506,39.565 174.070329,39.3430022 175.02,38.899 C175.969671,38.4549978 176.777497,37.8568371 177.4435,37.1045 C178.109503,36.3521629 178.621332,35.4703384 178.979,34.459 C179.336668,33.4476616 179.5155,32.3870056 179.5155,31.277 L179.5155,31.277 Z M186.2315,31.055 C186.2315,32.0910052 186.385665,33.1146616 186.694,34.126 C187.002335,35.1373384 187.470997,36.0438293 188.1,36.8455 C188.729003,37.6471707 189.524495,38.2946642 190.4865,38.788 C191.448505,39.2813358 192.58316,39.528 193.8905,39.528 C195.222507,39.528 196.406495,39.262836 197.4425,38.7325 C198.478505,38.202164 199.37883,37.4313384 200.1435,36.42 L200.7355,36.938 C199.896829,38.0233388 198.916339,38.8496638 197.794,39.417 C196.671661,39.9843362 195.370507,40.268 193.8905,40.268 C192.632494,40.268 191.485505,40.0398356 190.4495,39.5835 C189.413495,39.1271644 188.519337,38.4920041 187.767,37.678 C187.014663,36.8639959 186.435002,35.8896723 186.028,34.755 C185.620998,33.6203277 185.4175,32.3870067 185.4175,31.055 C185.4175,29.7723269 185.627165,28.5883388 186.0465,27.503 C186.465835,26.4176612 187.03933,25.4803373 187.767,24.691 C188.49467,23.9016627 189.351828,23.2911688 190.3385,22.8595 C191.325172,22.4278312 192.385828,22.212 193.5205,22.212 C194.852507,22.212 196.011828,22.446331 196.9985,22.915 C197.985172,23.383669 198.80533,24.0003295 199.459,24.765 C200.11267,25.5296705 200.599832,26.3991618 200.9205,27.3735 C201.241168,28.3478382 201.4015,29.3406616 201.4015,30.352 L201.4015,31.055 L186.2315,31.055 Z M200.6245,30.352 C200.599833,29.2419944 200.408668,28.2306712 200.051,27.318 C199.693332,26.4053288 199.20617,25.6221699 198.5895,24.9685 C197.97283,24.3148301 197.232838,23.8091685 196.3695,23.4515 C195.506162,23.0938315 194.544172,22.915 193.4835,22.915 C192.200827,22.915 191.103171,23.180164 190.1905,23.7105 C189.277829,24.240836 188.53167,24.8944961 187.952,25.6715 C187.37233,26.4485039 186.946835,27.2624957 186.6755,28.1135 C186.404165,28.9645043 186.2685,29.7106635 186.2685,30.352 L200.6245,30.352 Z"
           id="inescape"
           stroke="#67707A"
           stroke-width="0.5"
           fill="#66707A" />
        <path
           d="M50,38.1351 C50,39.0269 49.3605238,39.75 48.5718571,39.75 L25.4281429,39.75 C24.6394762,39.75 24,39.0269 24,38.1351 L24,20.3649 C24,19.4731 24.6394762,18.75 25.4281429,18.75 L48.5718571,18.75 C49.3605238,18.75 50,19.4731 50,20.3649"
           id="camera-C"
           stroke="#67707A"
           stroke-width="1.4" />
        <g
           id="camera-lense"
           transform="translate(27.000000, 21.500000)">
          <path
             d="M6.5,3.69444444 C6.5,5.41290909 5.04518182,6.80555556 3.25,6.80555556 C1.45481818,6.80555556 0,5.41290909 0,3.69444444 C0,1.9759798 1.45481818,0.583333333 3.25,0.583333333 C5.04518182,0.583333333 6.5,1.9759798 6.5,3.69444444 L6.5,3.69444444 L6.5,3.69444444 Z"
             id="Stroke-337"
             stroke="#73818E"
             stroke-width="1.12" />
          <path
             d="M5.28125,3.69444444 C5.28125,4.76848485 4.37198864,5.63888889 3.25,5.63888889 C2.12801136,5.63888889 1.21875,4.76848485 1.21875,3.69444444 C1.21875,2.62040404 2.12801136,1.75 3.25,1.75 C4.37198864,1.75 5.28125,2.62040404 5.28125,3.69444444 L5.28125,3.69444444 L5.28125,3.69444444 Z"
             id="path20"
             fill="#4CB2D2"
             style="fill:#ff0000" />
        </g>
        <path
           d="M30.0494141,59.3686523 C29.3843717,59.58838 28.6563516,59.6982422 27.8653321,59.6982422 C27.0743125,59.6982422 26.5264664,59.6923829 26.2217774,59.6806641 L26.2217774,63.75 L23.4268555,63.75 L23.4268555,50.3730469 L24.2706055,50.3730469 L28.2168946,50.2324219 C30.6133909,50.2324219 32.1309539,51.0644448 32.7696289,52.7285156 C32.9922863,53.3144561 33.1036133,54.0058554 33.1036133,54.8027344 C33.1036133,55.5996134 32.986427,56.2983368 32.7520508,56.8989258 C32.5176746,57.4995147 32.1749046,58.0063456 31.7237305,58.4194336 C31.2725564,58.8325216 30.7144565,59.1489247 30.0494141,59.3686523 L30.0494141,59.3686523 Z M29.6714844,52.8955078 C29.2349588,52.4736307 28.6460975,52.2626953 27.9048828,52.2626953 C27.1636682,52.2626953 26.6026387,52.3037105 26.2217774,52.3857422 L26.2217774,57.5097656 C26.5674822,57.5566409 26.9820289,57.5800781 27.4654297,57.5800781 C27.9488306,57.5800781 28.3501938,57.5390629 28.6695313,57.4570312 C28.9888688,57.3749996 29.2715808,57.2285167 29.5176758,57.0175781 C30.056741,56.566404 30.3262696,55.872075 30.3262696,54.9345703 C30.3262696,53.9970656 30.10801,53.3173849 29.6714844,52.8955078 L29.6714844,52.8955078 Z M40.2527149,58.6611328 C39.8074001,58.6845704 39.2185388,58.6962891 38.4861133,58.6962891 L38.4861133,63.75 L35.6911914,63.75 L35.6911914,50.3730469 L36.9831836,50.3730469 C37.1882628,50.3730469 37.3977333,50.3657227 37.6116016,50.3510742 C37.8254698,50.3364257 38.0700963,50.3203126 38.3454883,50.3027344 C39.066195,50.2558591 39.7678482,50.2324219 40.4504688,50.2324219 C41.1330894,50.2324219 41.7644307,50.2954095 42.3445117,50.4213867 C42.9245928,50.5473639 43.437283,50.7656234 43.8825977,51.0761719 C44.8611182,51.7500034 45.3503711,52.816399 45.3503711,54.2753906 C45.3503711,56.2793069 44.6091676,57.5771455 43.1267383,58.1689453 C43.5603342,58.5380878 44.0027126,59.2324168 44.4538867,60.2519531 C44.6413877,60.6738302 44.827421,61.1059548 45.0119922,61.5483398 C45.1965635,61.9907249 45.4001747,62.4023418 45.6228321,62.7832031 L46.176543,63.75 L43.0652149,63.75 C42.965605,63.6093743 42.8747856,63.4482431 42.7927539,63.2666016 C42.7107223,63.08496 42.6213677,62.8945322 42.5246875,62.6953125 C42.4280074,62.4960928 42.328399,62.2441421 42.2258594,61.9394531 C42.1233198,61.6347641 42.0222466,61.3300796 41.9226367,61.0253906 C41.8230269,60.7207016 41.7204888,60.426271 41.6150196,60.1420898 C41.5095503,59.8579087 41.392364,59.607423 41.2634571,59.390625 C40.9822057,58.9160133 40.645295,58.6728516 40.2527149,58.6611328 L40.2527149,58.6611328 Z M40.0681446,52.3154297 C39.4587665,52.3154297 38.931428,52.3681635 38.4861133,52.4736328 L38.4861133,56.6835938 C38.7673647,56.7187502 39.1130644,56.7363281 39.5232227,56.7363281 L40.3230274,56.7363281 C41.1081875,56.7363281 41.7029082,56.4960962 42.1072071,56.015625 C42.4587713,55.5996073 42.6345508,55.0459019 42.6345508,54.3544922 C42.6345508,53.7333953 42.4880679,53.2617204 42.1950977,52.9394531 C41.8200958,52.5234354 41.1111185,52.3154297 40.0681446,52.3154297 L40.0681446,52.3154297 Z M51.3393164,63.4248047 C49.8041525,62.762692 48.7641238,61.5732508 48.2191992,59.8564453 C47.9613855,59.0302693 47.8324805,58.0722711 47.8324805,56.9824219 C47.8324805,55.8925727 48.0009358,54.912602 48.3378516,54.0424805 C48.6747673,53.1723589 49.1244699,52.4648465 49.6869727,51.9199219 C50.8412753,50.7949163 52.4027831,50.2324219 54.371543,50.2324219 C56.1293643,50.2324219 57.5297409,50.8417908 58.5727149,52.0605469 C59.6098294,53.2675842 60.1283789,54.8671775 60.1283789,56.859375 C60.1283789,59.1738397 59.527799,60.9462829 58.3266211,62.1767578 C57.2133343,63.3193417 55.6957713,63.890625 53.7738867,63.890625 C52.8715385,63.890625 52.0600232,63.7353531 51.3393164,63.4248047 L51.3393164,63.4248047 Z M52.5522071,61.4428711 C52.9623654,61.6860364 53.428181,61.8076172 53.949668,61.8076172 C54.471155,61.8076172 54.9325761,61.7124033 55.3339453,61.5219727 C55.7353145,61.331542 56.0766197,61.0371114 56.3578711,60.6386719 C56.9438115,59.8066365 57.2367774,58.5791097 57.2367774,56.9560547 C57.2367774,55.5849541 56.9789674,54.4892619 56.4633399,53.6689453 C55.9125559,52.7958941 55.1332668,52.359375 54.1254492,52.359375 C52.5434101,52.359375 51.5004518,53.2060462 50.996543,54.8994141 C50.8149015,55.4970733 50.7240821,56.176754 50.7240821,56.9384766 C50.7240821,57.7001991 50.7914642,58.3666964 50.9262305,58.9379883 C51.0609968,59.5092802 51.2631432,60.0087869 51.5326758,60.4365234 C51.8022084,60.86426 52.1420488,61.1997058 52.5522071,61.4428711 L52.5522071,61.4428711 Z M62.9620508,50.3730469 L64.2891992,50.3730469 C64.488419,50.3730469 64.8341186,50.3554689 65.3263086,50.3203125 C66.2579539,50.2617185 66.9932981,50.2324219 67.5323633,50.2324219 C70.8194891,50.2324219 72.8731795,51.4775266 73.6934961,53.9677734 C73.9571693,54.7705118 74.0890039,55.7138618 74.0890039,56.7978516 C74.0890039,57.8818414 73.9308024,58.8691362 73.6143945,59.7597656 C72.9698601,61.5586027 71.8038561,62.7831999 70.1163477,63.4335938 C69.3136093,63.7382828 68.4171339,63.890625 67.4268945,63.890625 C66.7999383,63.890625 66.2257253,63.8671877 65.7042383,63.8203125 C65.1827513,63.7734373 64.7198653,63.75 64.3155664,63.75 L62.9620508,63.75 L62.9620508,50.3730469 Z M67.2686914,52.3417969 L65.7833399,52.4648438 L65.7833399,61.5878906 C66.1642011,61.6933599 66.6915396,61.7446289 67.3653711,61.7416992 C68.0392026,61.7387695 68.5943728,61.6464853 69.0308985,61.4648438 C69.4674241,61.2832022 69.8409555,61.001955 70.1515039,60.6210938 C70.8077572,59.8183554 71.1358789,58.6142658 71.1358789,57.0087891 C71.1358789,55.3037024 70.8194758,54.0908239 70.1866602,53.3701172 C69.5831415,52.6845669 68.610495,52.3417969 67.2686914,52.3417969 L67.2686914,52.3417969 Z M76.6238477,50.3730469 L79.3924024,50.3730469 L79.3748242,57.8613281 C79.3748242,59.337898 79.6004079,60.3603487 80.051582,60.9287109 C80.4441621,61.4150415 81.1033352,61.6582031 82.0291211,61.6582031 C82.9138911,61.6582031 83.5554863,61.3974635 83.9539258,60.8759766 C84.4050999,60.2900361 84.6306836,59.2851634 84.6306836,57.8613281 L84.6306836,50.3730469 L87.3816602,50.3730469 L87.3816602,58.125 C87.3816602,60.0000094 86.9260983,61.4296826 86.0149609,62.4140625 C85.1038236,63.3984424 83.7488567,63.890625 81.9500195,63.890625 C79.1375055,63.890625 77.444163,62.7363397 76.8699414,60.4277344 C76.6941593,59.7011682 76.6062695,58.8955122 76.6062695,58.0107422 L76.6238477,50.3730469 Z M89.8901367,57.0263672 C89.8901367,55.965815 90.0600569,55.0092816 90.3999023,54.1567383 C90.7397478,53.304195 91.2055634,52.5878935 91.7973633,52.0078125 C92.9985412,50.8242128 94.5483304,50.2324219 96.4467773,50.2324219 C97.5014701,50.2324219 98.4975539,50.3554675 99.4350586,50.6015625 C99.657716,50.6601565 99.8745107,50.7099607 100.085449,50.7509766 L99.6811523,53.2119141 C99.2592752,52.9775379 98.9223645,52.8193363 98.6704102,52.7373047 C98.0786103,52.5439443 97.4531283,52.4472656 96.7939453,52.4472656 C96.1347623,52.4472656 95.5708031,52.5483388 95.1020508,52.7504883 C94.6332984,52.9526377 94.2260759,53.2441387 93.8803711,53.625 C93.1420862,54.4453166 92.7729492,55.5439384 92.7729492,56.9208984 C92.7729492,58.3388743 93.1303675,59.4873003 93.8452148,60.3662109 C94.5893592,61.2744186 95.585443,61.7285156 96.8334961,61.7285156 C97.6889691,61.7285156 98.5532183,61.5410175 99.4262695,61.1660156 C99.6489269,61.0664058 99.8188471,60.9726567 99.9360352,60.8847656 L99.9448242,63.1875 C99.0893512,63.5273454 98.414065,63.7294919 97.9189453,63.7939453 C97.4238256,63.8583988 96.9741231,63.890625 96.5698242,63.890625 C94.5307515,63.890625 92.9018616,63.2636781 91.6831055,62.0097656 C90.487787,60.7792907 89.8901367,59.1181745 89.8901367,57.0263672 L89.8901367,57.0263672 Z M104.843926,52.5175781 L101.011895,52.5175781 L101.011895,50.3730469 L111.470879,50.3730469 L111.470879,52.5175781 L107.656426,52.5175781 L107.656426,63.75 L104.843926,63.75 L104.843926,52.5175781 Z M113.821152,50.3730469 L116.633652,50.3730469 L116.633652,63.75 L113.821152,63.75 L113.821152,50.3730469 Z M123.088418,63.4248047 C121.553254,62.762692 120.513225,61.5732508 119.968301,59.8564453 C119.710487,59.0302693 119.581582,58.0722711 119.581582,56.9824219 C119.581582,55.8925727 119.750037,54.912602 120.086953,54.0424805 C120.423869,53.1723589 120.873571,52.4648465 121.436074,51.9199219 C122.590377,50.7949163 124.151885,50.2324219 126.120645,50.2324219 C127.878466,50.2324219 129.278842,50.8417908 130.321816,52.0605469 C131.358931,53.2675842 131.87748,54.8671775 131.87748,56.859375 C131.87748,59.1738397 131.276901,60.9462829 130.075723,62.1767578 C128.962436,63.3193417 127.444873,63.890625 125.522988,63.890625 C124.62064,63.890625 123.809125,63.7353531 123.088418,63.4248047 L123.088418,63.4248047 Z M124.301309,61.4428711 C124.711467,61.6860364 125.177283,61.8076172 125.69877,61.8076172 C126.220256,61.8076172 126.681678,61.7124033 127.083047,61.5219727 C127.484416,61.331542 127.825721,61.0371114 128.106973,60.6386719 C128.692913,59.8066365 128.985879,58.5791097 128.985879,56.9560547 C128.985879,55.5849541 128.728069,54.4892619 128.212441,53.6689453 C127.661657,52.7958941 126.882368,52.359375 125.874551,52.359375 C124.292512,52.359375 123.249553,53.2060462 122.745645,54.8994141 C122.564003,55.4970733 122.473184,56.176754 122.473184,56.9384766 C122.473184,57.7001991 122.540566,58.3666964 122.675332,58.9379883 C122.810098,59.5092802 123.012245,60.0087869 123.281777,60.4365234 C123.55131,60.86426 123.89115,61.1997058 124.301309,61.4428711 L124.301309,61.4428711 Z M134.711152,50.3730469 L137.303926,50.3730469 L142.287324,58.2392578 L143.298066,60.2431641 L143.043184,57.0263672 L143.043184,50.3730469 L145.644746,50.3730469 L145.644746,63.75 L142.841035,63.75 L138.068574,56.1826172 L137.005098,54.046875 L137.312715,57.2373047 L137.312715,63.75 L134.711152,63.75 L134.711152,50.3730469 Z M153.584863,52.3242188 C152.248919,52.3242188 151.580957,52.7812454 151.580957,53.6953125 C151.580957,54.1464866 151.762596,54.5302719 152.125879,54.8466797 C152.389552,55.0751965 152.881735,55.3813457 153.602441,55.7651367 C154.323148,56.1489277 154.907615,56.4770494 155.355859,56.7495117 C155.804104,57.021974 156.192283,57.322264 156.52041,57.6503906 C157.217679,58.3359409 157.566309,59.1738232 157.566309,60.1640625 C157.566309,61.3476622 157.141508,62.2705045 156.291894,62.9326172 C155.477437,63.5712923 154.370026,63.890625 152.969629,63.890625 C151.727435,63.890625 150.587798,63.7119158 149.550684,63.3544922 C149.275292,63.2607417 149.076075,63.1757816 148.953027,63.0996094 L149.348535,60.8583984 C150.010648,61.2275409 150.813374,61.4824212 151.756738,61.6230469 C152.090724,61.6757815 152.439354,61.7021484 152.802637,61.7021484 C153.16592,61.7021484 153.473534,61.6728519 153.725488,61.6142578 C153.977443,61.5556638 154.179589,61.4707037 154.331934,61.359375 C154.613185,61.1484364 154.753809,60.8085961 154.753809,60.3398438 C154.753809,59.8828102 154.578029,59.5019546 154.226465,59.1972656 C153.921776,58.927733 153.435453,58.6274431 152.76748,58.2963867 C152.099508,57.9653304 151.632228,57.7221687 151.365625,57.5668945 C151.099022,57.4116203 150.842677,57.2402353 150.596582,57.0527344 C150.350487,56.8652334 150.120509,56.6616222 149.906641,56.4418945 C149.692772,56.2221669 149.506739,55.9804701 149.348535,55.7167969 C149.00869,55.1425753 148.838769,54.5214877 148.838769,53.8535156 C148.838769,53.1855435 148.96328,52.6215843 149.212305,52.1616211 C149.461329,51.7016579 149.799705,51.3281264 150.227441,51.0410156 C151.041899,50.5019504 152.134661,50.2324219 153.505762,50.2324219 C154.642486,50.2324219 155.626851,50.4082014 156.458887,50.7597656 C156.675685,50.8476567 156.842675,50.9296871 156.959863,51.0058594 L156.502832,53.1767578 C155.618062,52.6083956 154.645415,52.3242188 153.584863,52.3242188 L153.584863,52.3242188 Z"
           id="PRODUCTIONS"
           fill="#4BB2D2"
           style="fill:#ff0000" />
      </g>
    </g>
  </g>
</svg>
